State of Play [BDRip-720p-Mkv-Ita-Dts-Ita/Eng/Esp-Ac3-Deu-AacMultiSub][Nautilus-BT]



General
Complete name                    : E:\State of Play [BDRip-720p-MultiLang-MultiSub-Chapters][RiP By MaX].mkv
Format                           : Matroska
File size                        : 4.37 GiB
Duration                         : 2h 6mn
Overall bit rate                 : 4 930 Kbps
Encoded date                     : UTC 2011-04-03 14:41:20
Writing application              : mkvmerge v4.6.0 ('Still Crazy After All These Years') built on Mar 10 2011 02:50:32
Writing library                  : libebml v1.2.0 + libmatroska v1.1.0

Video
ID                               : 1
Format                           : AVC
Format/Info                      : Advanced Video Codec
Format profile                   : High@L4.1
Format settings, CABAC           : Yes
Format settings, ReFrames        : 5 frames
Muxing mode                      : Container profile=Unknown@4.1
Codec ID                         : V_MPEG4/ISO/AVC
Duration                         : 2h 6mn
Nominal bit rate                 : 3 197 Kbps
Width                            : 1 280 pixels
Height                           : 540 pixels
Display aspect ratio             : 2.35:1
Frame rate                       : 23.976 fps
Color space                      : YUV
Chroma subsampling               : 4:2:0
Bit depth                        : 8 bits
Scan type                        : Progressive
Bits/(Pixel*Frame)               : 0.193
Title                            : State of Play [BDRip 720p][RiP By MaX]
Writing library                  : x264 core 114 r1924 08d04a4
Encoding settings                : cabac=1 / ref=5 / deblock=1:0:0 / analyse=0x3:0x133 / me=hex / subme=7 / psy=1 / psy_rd=1.00:0.00 / mixed_ref=1 / me_range=16 / chroma_me=1 / trellis=1 / 8x8dct=1 / cqm=0 / deadzone=21,11 / fast_pskip=0 / chroma_qp_offset=-2 / threads=6 / sliced_threads=0 / nr=0 / decimate=0 / interlaced=0 / constrained_intra=0 / bframes=3 / b_pyramid=2 / b_adapt=2 / b_bias=0 / direct=3 / weightb=1 / open_gop=0 / weightp=1 / keyint=240 / keyint_min=23 / scenecut=40 / intra_refresh=0 / rc_lookahead=40 / rc=2pass / mbtree=1 / bitrate=3197 / ratetol=1.0 / qcomp=0.60 / qpmin=10 / qpmax=51 / qpstep=4 / cplxblur=20.0 / qblur=0.5 / ip_ratio=1.40 / aq=1:1.00
Language                         : Italian

Audio #1
ID                               : 2
Format                           : DTS
Format/Info                      : Digital Theater Systems
Codec ID                         : A_DTS
Duration                         : 2h 6mn
Bit rate mode                    : Constant
Bit rate                         : 755 Kbps
Channel(s)                       : 6 channels
Channel positions                : Front: L C R, Side: L R, LFE
Sampling rate                    : 48.0 KHz
Bit depth                        : 24 bits
Stream size                      : 685 MiB (15%)
Title                            : Ita Dts 5.1
Language                         : Italian

Audio #2
ID                               : 3
Format                           : AC-3
Format/Info                      : Audio Coding 3
Mode extension                   : CM (complete main)
Codec ID                         : A_AC3
Duration                         : 2h 6mn
Bit rate mode                    : Constant
Bit rate                         : 256 Kbps
Channel(s)                       : 6 channels
Channel positions                : Front: L C R, Side: L R, LFE
Sampling rate                    : 48.0 KHz
Bit depth                        : 16 bits
Stream size                      : 233 MiB (5%)
Title                            : Ita Ac3 5.1
Language                         : Italian

Audio #3
ID                               : 4
Format                           : AC-3
Format/Info                      : Audio Coding 3
Mode extension                   : CM (complete main)
Codec ID                         : A_AC3
Duration                         : 2h 6mn
Bit rate mode                    : Constant
Bit rate                         : 256 Kbps
Channel(s)                       : 6 channels
Channel positions                : Front: L C R, Side: L R, LFE
Sampling rate                    : 48.0 KHz
Bit depth                        : 16 bits
Stream size                      : 233 MiB (5%)
Title                            : Eng Ac3 5.1

Audio #4
ID                               : 5
Format                           : AC-3
Format/Info                      : Audio Coding 3
Mode extension                   : CM (complete main)
Codec ID                         : A_AC3
Duration                         : 2h 6mn
Bit rate mode                    : Constant
Bit rate                         : 256 Kbps
Channel(s)                       : 6 channels
Channel positions                : Front: L C R, Side: L R, LFE
Sampling rate                    : 48.0 KHz
Bit depth                        : 16 bits
Stream size                      : 233 MiB (5%)
Title                            : Esp Ac3 5.1
Language                         : Spanish

Audio #5
ID                               : 6
Format                           : AAC
Format/Info                      : Advanced Audio Codec
Format version                   : Version 4
Format profile                   : LC
Format settings, SBR             : Yes
Format settings, PS              : No
Codec ID                         : A_AAC
Duration                         : 2h 6mn
Channel(s)                       : 6 channels
Channel positions                : Front: L C R, Side: L R, LFE
Sampling rate                    : 48.0 KHz
Title                            : Deu Aac 5.1
Language                         : German

Text #1
ID                               : 7
Format                           : UTF-8
Codec ID                         : S_TEXT/UTF8
Codec ID/Info                    : UTF-8 Plain Text
Title                            : Sub Ita Forced
Language                         : Italian

Text #2
ID                               : 8
Format                           : UTF-8
Codec ID                         : S_TEXT/UTF8
Codec ID/Info                    : UTF-8 Plain Text
Title                            : Sub Ita
Language                         : Italian

Text #3
ID                               : 9
Format                           : UTF-8
Codec ID                         : S_TEXT/UTF8
Codec ID/Info                    : UTF-8 Plain Text
Title                            : Sub Eng

Text #4
ID                               : 10
Format                           : UTF-8
Codec ID                         : S_TEXT/UTF8
Codec ID/Info                    : UTF-8 Plain Text
Title                            : Sub Deu Forced
Language                         : German

Text #5
ID                               : 11
Format                           : UTF-8
Codec ID                         : S_TEXT/UTF8
Codec ID/Info                    : UTF-8 Plain Text
Title                            : Sub Deu
Language                         : German

Text #6
ID                               : 12
Format                           : UTF-8
Codec ID                         : S_TEXT/UTF8
Codec ID/Info                    : UTF-8 Plain Text
Title                            : Sub Esp Forced
Language                         : Spanish

Text #7
ID                               : 13
Format                           : UTF-8
Codec ID                         : S_TEXT/UTF8
Codec ID/Info                    : UTF-8 Plain Text
Title                            : Sub Esp
Language                         : Spanish

Text #8
ID                               : 14
Format                           : UTF-8
Codec ID                         : S_TEXT/UTF8
Codec ID/Info                    : UTF-8 Plain Text
Title                            : Sub Ned
Language                         : Dutch

Text #9
ID                               : 15
Format                           : UTF-8
Codec ID                         : S_TEXT/UTF8
Codec ID/Info                    : UTF-8 Plain Text
Title                            : Sub Dan
Language                         : Danish

Text #10
ID                               : 16
Format                           : UTF-8
Codec ID                         : S_TEXT/UTF8
Codec ID/Info                    : UTF-8 Plain Text
Title                            : Sub Fin
Language                         : Finnish

Text #11
ID                               : 17
Format                           : VobSub
Codec ID                         : S_VOBSUB
Codec ID/Info                    : The same subtitle format used on DVDs
Title                            : Sub Gre
Language                         : Greek

Text #12
ID                               : 18
Format                           : VobSub
Codec ID                         : S_VOBSUB
Codec ID/Info                    : The same subtitle format used on DVDs
Title                            : Sub Kor
Language                         : Korean

Text #13
ID                               : 19
Format                           : UTF-8
Codec ID                         : S_TEXT/UTF8
Codec ID/Info                    : UTF-8 Plain Text
Title                            : Sub Nor
Language                         : Norwegian

Text #14
ID                               : 20
Format                           : UTF-8
Codec ID                         : S_TEXT/UTF8
Codec ID/Info                    : UTF-8 Plain Text
Title                            : Sub Por
Language                         : Portuguese

Text #15
ID                               : 21
Format                           : UTF-8
Codec ID                         : S_TEXT/UTF8
Codec ID/Info                    : UTF-8 Plain Text
Title                            : Sub Swe
Language                         : Swedish

Text #16
ID                               : 22
Format                           : VobSub
Codec ID                         : S_VOBSUB
Codec ID/Info                    : The same subtitle format used on DVDs
Title                            : Sub Chi
Language                         : Chinese

Menu
00:00:00.000                     : :01
00:05:41.174                     : :02
00:09:03.877                     : :03
00:15:13.204                     : :04
00:20:05.913                     : :05
00:28:58.195                     : :06
00:34:41.246                     : :07
00:41:52.927                     : :08
00:46:08.557                     : :09
00:51:40.973                     : :10
00:56:24.506                     : :11
01:01:44.492                     : :12
01:07:09.234                     : :13
01:13:19.562                     : :14
01:18:48.432                     : :15
01:27:52.893                     : :16
01:34:41.384                     : :17
01:38:15.431                     : :18
01:45:51.053                     : :19
01:58:02.534                     : :20